<?xml version="1.0" encoding="UTF-8"?>
<!DOCTYPE svg PUBLIC "-//W3C//DTD SVG 1.1//EN" "http://www.w3.org/Graphics/SVG/1.1/DTD/svg11.dtd">
<!-- Creator: CorelDRAW X7 -->
<svg xmlns="http://www.w3.org/2000/svg" xml:space="preserve" width="1000px" height="1000px" version="1.1" style="shape-rendering:geometricPrecision; text-rendering:geometricPrecision; image-rendering:optimizeQuality; fill-rule:evenodd; clip-rule:evenodd"
viewBox="0 0 1000 1000"
 xmlns:xlink="http://www.w3.org/1999/xlink">
 <defs>
  <style type="text/css">
   <![CDATA[
    .fil0 {fill:#DE1111}
   ]]>
  </style>
 </defs>
 <g id="Layer_x0020_1">
  <metadata id="CorelCorpID_0Corel-Layer"/>
  <path class="fil0" d="M0 0l0 780 114 0 0 -668c66,0 424,-4 473,3 104,16 92,166 41,199 -37,24 -83,18 -142,18 -106,0 -212,0 -319,0 3,11 36,39 45,49l516 515c31,32 62,61 93,94 7,7 9,9 14,10l165 0 -552 -553c63,-1 134,3 185,-9 47,-12 91,-37 115,-80 37,-68 41,-174 14,-241 -11,-28 -18,-40 -38,-60 -34,-34 -81,-55 -133,-57l-591 0z"/>
 </g>
</svg>
